PathFileType	4	(X/Y/Z)	C:\Users\WrightLab\Desktop\Jo\P1.2Trial10.trc
DataRate	CameraRate	NumFrames	NumMarkers	Units	OrigDataRate	OrigDataStartFrame	OrigNumFrames
100.00	100.00	       51	19	mm	100.00	1	       539
Frame#	Time	Headset_Front			Headset_Back			Headset_Left			Headset_Right			Left_Shoulder			Right_Shoulder			Sternum			C7			Left Elbow			Right Elbow			Left Wrist			Right Wrist			Left ASIS			Right ASIS			S2			Left Knee			Right Knee			Left Ankle			Right Ankle			
		X1	Y1	Z1	X2	Y2	Z2	X3	Y3	Z3	X4	Y4	Z4	X5	Y5	Z5	X6	Y6	Z6	X7	Y7	Z7	X8	Y8	Z8	X9	Y9	Z9	X10	Y10	Z10	X11	Y11	Z11	X12	Y12	Z12	X13	Y13	Z13	X14	Y14	Z14	X15	Y15	Z15	X16	Y16	Z16	X17	Y17	Z17	X18	Y18	Z18	X19	Y19	Z19	

1	0.000																																																										
2	0.010																																																										
3	0.020																																																										
4	0.030																																																										
5	0.040																																																										
6	0.050																																																										
7	0.060																																																										
8	0.070																																																										
9	0.080													-17.16779	1207.22668	-1647.01355																																											
10	0.090													-16.92584	1207.67712	-1644.95361																																											
11	0.100													-16.98459	1207.76965	-1642.02185																																											
12	0.110													-16.82413	1208.26929	-1639.70093																																											
13	0.120													-15.58569	1207.95532	-1635.50757																																											
14	0.130													-14.86510	1206.04309	-1627.93372																																											
15	0.140													-15.38429	1205.40393	-1622.75342																																											
16	0.150													-15.49345	1205.89343	-1620.39868																																											
17	0.160													-14.61170	1203.82288	-1612.36755																																											
18	0.170													-14.76704	1202.49841	-1605.85901																																											
19	0.180													-15.99074	1202.69202	-1602.86768																																											
20	0.190													-16.13931	1200.68030	-1594.94104																																											
21	0.200													-16.47836	1199.90259	-1589.75500																																											
22	0.210													-16.85829	1199.14941	-1584.45813																																											
23	0.220													-17.30322	1197.18555	-1576.30042				-242.50378	1134.23499	-1492.06653																																					
24	0.230													-18.91251	1197.44836	-1572.88477				-244.84616	1134.39502	-1485.53845																																					
25	0.240													-20.54569	1197.75269	-1569.26758				-245.77641	1134.72058	-1483.54797																																					
26	0.250													-21.54728	1197.77747	-1564.69250				-248.18079	1134.16272	-1476.31750																																					
27	0.260													-22.72322	1196.85754	-1557.77185				-250.30673	1133.69702	-1473.37769																																					
28	0.270													-24.91916	1197.20764	-1553.36084				-251.87593	1131.08728	-1476.48511																-125.59303	818.07202	-1471.23877																			
29	0.280													-26.12335	1197.45129	-1548.82092				-255.38989	1131.64685	-1471.75122																-127.87893	817.48114	-1471.71729																			
30	0.290													-28.43496	1198.54456	-1545.78748				-257.23141	1132.20923	-1470.77539																-131.72081	816.86078	-1471.98022																			
31	0.300													-30.38292	1199.00427	-1541.37720				-259.73303	1131.70337	-1464.23560																-133.66730	816.56061	-1470.33191																			
32	0.310													-32.28726	1199.92761	-1537.93860				-261.93689	1132.19482	-1457.11182																-135.34010	816.23407	-1466.86133																			
33	0.320													-35.26930	1200.30981	-1533.13318				-263.03082	1131.53296	-1455.00464																-138.07457	816.65326	-1459.90430																			
34	0.330													-36.74019	1198.84265	-1524.60742				-266.40781	1131.33521	-1447.54443																-139.23885	816.02679	-1456.47424																			
35	0.340													-39.09678	1199.26233	-1520.31482				-269.27213	1129.28748	-1446.98242																-140.14339	816.11584	-1452.77344	-413.09378	812.52069	-1518.06177																
36	0.350													-42.02573	1200.30310	-1517.37854				-273.27036	1128.94775	-1442.94824																-142.50833	816.68341	-1444.36487	-414.66174	810.21033	-1515.75305																
37	0.360													-45.58232	1200.12427	-1511.89966				-274.30814	1127.26221	-1443.01477																-143.46428	816.06500	-1442.19019	-417.51315	811.51410	-1507.49207																
38	0.370													-47.47547	1198.60413	-1503.62671				-278.23996	1127.66443	-1430.97754																-144.23007	814.93408	-1441.59778	-418.01907	809.69965	-1508.94910																
39	0.380													-51.07765	1198.67053	-1498.82275				-280.12064	1126.24390	-1426.93530																-147.07008	813.93158	-1433.27759	-420.70718	809.24017	-1504.47009																
40	0.390													-53.26583	1197.10413	-1490.78906				-283.85986	1124.36084	-1421.60669																-148.58115	813.55438	-1428.10168	-423.43936	808.05920	-1499.21851																
41	0.400													-57.29474	1196.88721	-1485.40088				-288.14438	1123.21729	-1420.38062																-149.41010	812.74640	-1427.97656	-424.96411	805.47034	-1497.67126																
42	0.410													-61.17365	1197.47302	-1481.89966				-290.92340	1120.27686	-1417.10913																-153.55254	811.61163	-1418.71338	-429.27249	804.79419	-1491.27319																
43	0.420													-63.93177	1195.06909	-1472.17371				-294.69540	1121.54565	-1405.21313				26.46730	923.87280	-1562.83948										-155.25809	809.40448	-1418.69531	-430.20087	804.65692	-1486.70642				-123.98214	373.28113	-1477.89343										
44	0.430													-68.00365	1195.04114	-1467.76025				-297.94507	1119.53955	-1403.08752				22.83368	924.07227	-1555.70569										-159.43394	808.23071	-1412.57483	-434.91287	803.05121	-1478.78821				-125.58153	371.35147	-1478.44055	-489.95322	438.99170	-1413.71667							
45	0.440													-71.77021	1192.80493	-1458.62122				-302.62991	1116.59143	-1401.81104				20.82739	921.94849	-1548.63354				103.48959	715.56378	-1457.97241				-160.99171	807.44299	-1408.96826	-436.55835	801.80450	-1474.30933				-128.07397	370.55106	-1473.25488	-494.48865	436.36884	-1410.76904							
46	0.450													-75.84688	1192.82617	-1454.46753				-306.72885	1115.26440	-1392.50122				16.55216	921.86853	-1540.57068				99.64706	714.66522	-1451.10449				-164.62592	805.86115	-1399.36230	-440.75388	800.83942	-1467.49719				-130.43781	368.81525	-1469.78784	-500.91898	435.88449	-1409.14417							
47	0.460													-79.77596	1192.11096	-1448.84241				-309.79382	1115.26953	-1384.66431				14.07245	921.09485	-1535.65161				95.08248	713.61945	-1443.78064				-166.10519	804.90674	-1395.26733	-443.47552	799.33942	-1462.87085				-133.36293	368.59146	-1466.30798	-504.91287	435.27484	-1403.44995							
48	0.470													-84.48629	1191.15454	-1442.34680				-314.95145	1113.23401	-1382.04456				9.65199	919.14148	-1526.86145				89.90120	712.67090	-1436.35474				-170.85884	804.55804	-1386.17078	-446.85223	798.46552	-1457.43811				-134.95328	368.16379	-1462.03748	-510.00409	434.83319	-1399.95447							
49	0.480													-88.12505	1189.84863	-1435.60864				-319.20242	1111.86865	-1378.65515				7.04935	918.60327	-1522.11536				86.81467	710.89575	-1430.13928				-175.64732	803.32947	-1383.65247	-451.22144	795.78906	-1450.68494				-136.85785	364.86594	-1462.73059	-515.55377	433.51749	-1394.30139							
50	0.490													-92.54936	1188.29651	-1428.02612				-323.13358	1110.21948	-1368.56885				2.71655	916.94623	-1513.77515				80.95263	709.04901	-1421.40686				-179.25725	800.51501	-1381.13818	-455.37668	794.36237	-1444.19189				-139.59271	365.26120	-1455.17017	-519.52704	431.30109	-1389.72119							
51	0.500													-96.88663	1187.56934	-1422.53503				-328.63486	1109.27881	-1362.24646				-2.59215	917.20630	-1506.77856				76.08115	707.61603	-1414.24304				-183.05312	801.44702	-1371.08594	-459.09207	793.06512	-1439.62329				-142.17575	364.37607	-1450.00452	-523.77649	431.59888	-1381.00134							
